# xmcd
#
# Track frame offsets: 
#        150
#        23812
#        51270
#        91082
#        116287
#        143210
#        176387
#        207950
#        248510
#        270817
#        293735
#        310910
#
# Disc length: 4606 seconds
#
# Revision: 1
# Processed by: cddbd v1.4PL0 Copyright (c) Steve Scherf et al.
# Submitted via: ExactAudioCopy v0.95a3
#
DISCID=9611fc0c
DTITLE=Various Artist - Club Epic Vol 2
DYEAR=1900
DGENRE=Disco
TTITLE0=The Isley Brothers - It's A Disco Night
TTITLE1=The O'Jays - I Love Music
TTITLE2=Shalamar - Uptown Festival
TTITLE3=Carrie Lucas - Dance With You
TTITLE4=Gloria Estefan and Miami Sound Machine - Conga
TTITLE5=Dynasty - I Don't Want To Be A Freak
TTITLE6=McFadden and Whitehead - Ain't No Stopping Us Now
TTITLE7=Dan Hartman and Loleatta Holloway - Vertigo(Relight My Fire)
TTITLE8=Nicole - Don't You Want My Love
TTITLE9=Melba Moore - You Stepped Into My Life
TTITLE10=Sly and The Family Stone - Family Affair
TTITLE11=Angela Clemmons - Give Me Just A Little More Time
EXTD=
EXTT0=
EXTT1=
EXTT2=
EXTT3=
EXTT4=
EXTT5=
EXTT6=
EXTT7=
EXTT8=
EXTT9=
EXTT10=
EXTT11=
PLAYORDER=
